<?xml version="1.0" encoding="UTF-8" standalone="no"?>
<svg
   xmlns:dc="http://purl.org/dc/elements/1.1/"
   xmlns:cc="http://creativecommons.org/ns#"
   xmlns:rdf="http://www.w3.org/1999/02/22-rdf-syntax-ns#"
   xmlns:svg="http://www.w3.org/2000/svg"
   xmlns="http://www.w3.org/2000/svg"
   xmlns:sodipodi="http://sodipodi.sourceforge.net/DTD/sodipodi-0.dtd"
   xmlns:inkscape="http://www.inkscape.org/namespaces/inkscape"
   viewBox="0 0 793.70079 1122.5197"
   stroke-miterlimit="1.414"
   version="1.1"
   id="svg4"
   sodipodi:docname="gitLogo.svg"
   inkscape:version="0.92.1 r15371"
   width="210mm"
   height="297mm"
   style="clip-rule:evenodd;fill-rule:evenodd;stroke-linejoin:round;stroke-miterlimit:1.41400003">
  <metadata
     id="metadata10">
    <rdf:RDF>
      <cc:Work
         rdf:about="">
        <dc:format>image/svg+xml</dc:format>
        <dc:type
           rdf:resource="http://purl.org/dc/dcmitype/StillImage" />
        <dc:title></dc:title>
        <cc:license
           rdf:resource="http://creativecommons.org/licenses/by-nc/4.0/" />
      </cc:Work>
      <cc:License
         rdf:about="http://creativecommons.org/licenses/by-nc/4.0/">
        <cc:permits
           rdf:resource="http://creativecommons.org/ns#Reproduction" />
        <cc:permits
           rdf:resource="http://creativecommons.org/ns#Distribution" />
        <cc:requires
           rdf:resource="http://creativecommons.org/ns#Notice" />
        <cc:requires
           rdf:resource="http://creativecommons.org/ns#Attribution" />
        <cc:prohibits
           rdf:resource="http://creativecommons.org/ns#CommercialUse" />
        <cc:permits
           rdf:resource="http://creativecommons.org/ns#DerivativeWorks" />
      </cc:License>
    </rdf:RDF>
  </metadata>
  <defs
     id="defs8" />
  <sodipodi:namedview
     pagecolor="#ffffff"
     bordercolor="#666666"
     borderopacity="1"
     objecttolerance="10"
     gridtolerance="10"
     guidetolerance="10"
     inkscape:pageopacity="0"
     inkscape:pageshadow="2"
     inkscape:window-width="1916"
     inkscape:window-height="1117"
     id="namedview6"
     showgrid="false"
     inkscape:zoom="1"
     inkscape:cx="261.84766"
     inkscape:cy="557.4519"
     inkscape:window-x="1920"
     inkscape:window-y="81"
     inkscape:window-maximized="0"
     inkscape:current-layer="svg4"
     units="mm"
     inkscape:snap-page="true"
     inkscape:showpageshadow="false" />
  <path
     d="M 778.71479,525.8948 432.19064,179.61851 c -19.97843,-19.9288 -52.35042,-19.9288 -72.37843,0 l -71.78352,71.88268 91.21665,91.21666 c 21.31691,-7.1386 45.60831,-2.32998 62.46358,14.5748 17.05352,17.00398 21.81266,41.54333 14.47566,62.81069 l 87.94477,87.89509 c 21.31692,-7.337 45.8562,-2.57781 62.86018,14.37657 23.79563,23.79575 23.79563,62.26531 0,86.01147 -23.79567,23.79558 -62.26529,23.79558 -86.01138,0 -17.84673,-17.84679 -22.30842,-44.12113 -13.38504,-65.93388 l -82.24371,-81.8471 v 215.74728 c 5.80019,2.82562 11.25338,6.64297 16.11165,11.40199 23.54777,23.79575 23.54777,62.21571 0,85.96187 -23.79566,23.79556 -62.46359,23.79556 -86.25925,0 -23.79565,-23.79574 -23.79565,-62.16612 0,-85.91226 5.94891,-5.94881 12.74059,-10.41058 19.97843,-13.385 V 456.63952 c -7.18827,-2.97442 -13.97993,-7.337 -19.82969,-13.23623 -17.99546,-17.99554 -22.30842,-44.3691 -13.08762,-66.4295 L 252.53349,286.94691 14.874449,524.25881 c -19.829707,20.02812 -19.829707,52.35051 0,72.37849 L 361.49772,942.864 c 19.92887,19.97837 52.30089,19.97837 72.2793,0 L 778.71479,598.1741 c 19.97844,-19.92879 19.97844,-52.30093 0,-72.2793"
     id="path2"
     inkscape:connector-curvature="0"
     style="fill:#f14e32;fill-rule:nonzero;stroke-width:49.57426834" />
</svg>
