<?xml version="1.0" encoding="UTF-8" standalone="no"?>
<!-- Generator: Adobe Illustrator 17.1.0, SVG Export Plug-In . SVG Version: 6.00 Build 0)  -->

<svg
   xmlns:dc="http://purl.org/dc/elements/1.1/"
   xmlns:cc="http://creativecommons.org/ns#"
   xmlns:rdf="http://www.w3.org/1999/02/22-rdf-syntax-ns#"
   xmlns:svg="http://www.w3.org/2000/svg"
   xmlns="http://www.w3.org/2000/svg"
   xmlns:sodipodi="http://sodipodi.sourceforge.net/DTD/sodipodi-0.dtd"
   xmlns:inkscape="http://www.inkscape.org/namespaces/inkscape"
   version="1.1"
   id="Layer_1"
   x="0px"
   y="0px"
   viewBox="0 0 793.7008 1122.5197"
   enable-background="new 0 0 547.8 410.6"
   xml:space="preserve"
   sodipodi:docname="sassLogo.svg"
   width="210mm"
   height="297mm"
   inkscape:version="0.92.1 r15371"><metadata
     id="metadata21"><rdf:RDF><cc:Work
         rdf:about=""><dc:format>image/svg+xml</dc:format><dc:type
           rdf:resource="http://purl.org/dc/dcmitype/StillImage" /><dc:title></dc:title><cc:license
           rdf:resource="http://creativecommons.org/licenses/by-nc/4.0/" /></cc:Work><cc:License
         rdf:about="http://creativecommons.org/licenses/by-nc/4.0/"><cc:permits
           rdf:resource="http://creativecommons.org/ns#Reproduction" /><cc:permits
           rdf:resource="http://creativecommons.org/ns#Distribution" /><cc:requires
           rdf:resource="http://creativecommons.org/ns#Notice" /><cc:requires
           rdf:resource="http://creativecommons.org/ns#Attribution" /><cc:prohibits
           rdf:resource="http://creativecommons.org/ns#CommercialUse" /><cc:permits
           rdf:resource="http://creativecommons.org/ns#DerivativeWorks" /></cc:License></rdf:RDF></metadata><defs
     id="defs19" /><sodipodi:namedview
     pagecolor="#ffffff"
     bordercolor="#666666"
     borderopacity="1"
     objecttolerance="10"
     gridtolerance="10"
     guidetolerance="10"
     inkscape:pageopacity="0"
     inkscape:pageshadow="2"
     inkscape:window-width="1916"
     inkscape:window-height="1117"
     id="namedview17"
     showgrid="false"
     inkscape:snap-page="true"
     units="mm"
     inkscape:showpageshadow="false"
     inkscape:snap-grids="true"
     inkscape:snap-to-guides="true"
     inkscape:zoom="0.70710678"
     inkscape:cx="244.84897"
     inkscape:cy="593.01598"
     inkscape:window-x="1920"
     inkscape:window-y="81"
     inkscape:window-maximized="0"
     inkscape:current-layer="Layer_1" /><path
     d="m 683.43854,605.81916 c -27.68975,0.14498 -51.75518,6.81371 -71.90637,16.67185 -7.3936,-14.64222 -14.7872,-27.68976 -16.09195,-37.25793 -1.44972,-11.1629 -3.18939,-17.97662 -1.44972,-31.31409 1.73967,-13.33747 9.56819,-32.32887 9.42321,-33.77859 -0.14497,-1.44973 -1.73969,-8.26345 -17.68664,-8.40842 -15.94698,-0.14498 -29.71938,3.04443 -31.31408,7.24864 -1.5947,4.2042 -4.63913,13.77238 -6.66874,23.63052 -2.75448,14.49726 -31.89395,66.25245 -48.5658,93.36232 -5.36397,-10.583 -10.0031,-19.86124 -11.0179,-27.25485 -1.44973,-11.16287 -3.18941,-17.97659 -1.44973,-31.31406 1.73968,-13.33747 9.56818,-32.32888 9.42321,-33.7786 -0.14498,-1.44973 -1.73968,-8.26344 -17.68664,-8.40842 -15.94698,-0.14497 -29.71937,3.04442 -31.31408,7.24864 -1.5947,4.20421 -3.33437,14.06233 -6.66873,23.63051 -3.33438,9.56819 -42.04204,95.97183 -52.19013,118.29763 -5.219,11.45283 -9.71315,20.58609 -12.90255,26.81994 0,0 0,0 0,0 0,0 -0.14498,0.4349 -0.5799,1.15976 -2.75446,5.36399 -4.34917,8.26345 -4.34917,8.26345 0,0 0,0 0,0.14496 -2.17459,3.91427 -4.49415,7.53857 -5.65393,7.53857 -0.86984,0 -2.46453,-10.43802 0.28994,-24.64533 5.79891,-30.00935 19.57132,-76.6905 19.42632,-78.2852 0,-0.86984 2.60951,-8.9883 -8.98828,-13.19251 -11.30788,-4.20421 -15.36709,2.75448 -16.38189,2.75448 -1.01483,0 -1.73968,2.46454 -1.73968,2.46454 0,0 12.61261,-52.48006 -24.06544,-52.48006 -22.90567,0 -54.50969,25.08024 -70.16672,47.69596 -9.85814,5.36398 -30.87915,16.81683 -53.3499,29.13949 -8.55337,4.78409 -17.39671,9.56819 -25.66014,14.06233 -0.57988,-0.57988 -1.15979,-1.30475 -1.73966,-1.88463 C 138.05183,606.54404 55.997385,573.05538 59.476726,509.41242 60.781479,486.21681 68.75497,425.32835 217.06188,351.39234 c 122.06688,-60.1636 219.19848,-43.49175 236.01531,-6.52375 24.06545,52.77 -52.04514,150.77144 -178.17125,164.97874 -48.1309,5.364 -73.35613,-13.1925 -79.73491,-20.15117 -6.66874,-7.24863 -7.68354,-7.68355 -10.14808,-6.23382 -4.05923,2.17458 -1.44972,8.69836 0,12.46763 3.76929,9.85815 19.28134,27.25485 45.52138,35.80823 23.1956,7.53855 79.58992,11.74277 147.87198,-14.64223 C 454.81686,487.52156 514.54554,405.32215 497.00385,336.46019 479.46219,266.58342 363.48415,243.53278 253.73993,282.5304 188.50229,305.72599 117.75569,342.25908 66.870325,389.81007 6.416776,446.34937 -3.151412,495.49505 0.76284672,516.08117 14.825183,589.14732 115.58111,636.69831 155.88346,671.92664 c -2.02961,1.15979 -3.91425,2.17459 -5.50896,3.04443 -20.15118,10.00314 -96.98662,50.16052 -116.122996,92.63748 -21.745881,48.13088 3.47934,82.63434 20.151183,87.27347 51.755203,14.35228 104.960123,-11.45283 133.519723,-54.07475 28.55959,-42.62194 25.08024,-98.00145 11.88774,-123.37168 -0.14497,-0.28993 -0.28994,-0.57987 -0.57989,-0.86983 5.219,-3.04441 10.58299,-6.23382 15.80202,-9.27823 10.29303,-6.08886 20.44112,-11.74278 29.13947,-16.3819 -4.92906,13.48245 -8.55339,29.5744 -10.29305,52.77003 -2.1746,27.25484 8.9883,62.62814 23.63051,76.5455 6.52378,6.08885 14.20732,6.23383 19.13638,6.23383 17.10677,0 24.79031,-14.2073 33.34369,-31.02413 10.43802,-20.58611 19.86124,-44.50657 19.86124,-44.50657 0,0 -11.74277,64.65776 20.15119,64.65776 11.59779,0 23.34058,-15.07716 28.55959,-22.7607 0,0.14498 0,0.14498 0,0.14498 0,0 0.28994,-0.43493 0.86983,-1.44974 1.15978,-1.88463 1.88464,-3.04442 1.88464,-3.04442 0,0 0,-0.14496 0,-0.28995 4.63913,-8.11845 15.07715,-26.52996 30.58921,-57.11918 20.00621,-39.43256 39.28756,-88.72322 39.28756,-88.72322 0,0 1.73968,12.03272 7.68353,32.03893 3.47935,11.74278 10.72798,24.64533 16.52689,37.11299 -4.63912,6.52375 -7.53857,10.14809 -7.53857,10.14809 0,0 0,0 0.14497,0.14498 -3.76929,4.92906 -7.82853,10.29305 -12.32267,15.51207 -15.80201,18.84641 -34.64844,40.44733 -37.25794,46.68116 -3.04442,7.3936 -2.31956,12.75758 3.47933,17.10676 4.20421,3.18939 11.74278,3.62429 19.42632,3.18939 14.20731,-1.01481 24.21041,-4.49416 29.13949,-6.66874 7.68355,-2.75447 16.67186,-6.95868 25.08025,-13.19251 15.51206,-11.45282 24.93528,-27.83472 24.06544,-49.43563 -0.43491,-11.88775 -4.34918,-23.77553 -9.13327,-34.93842 1.44972,-2.02961 2.75448,-4.05923 4.2042,-6.08883 24.50037,-35.80822 43.49177,-75.09579 43.49177,-75.09579 0,0 1.73967,12.03273 7.68356,32.03893 2.89943,10.14809 8.84331,21.166 14.06232,31.89397 -23.05063,18.70146 -37.25794,40.44736 -42.332,54.65467 -9.13325,26.385 -2.02959,38.27276 11.45284,41.02723 6.08885,1.30476 14.78721,-1.59469 21.166,-4.34917 8.11844,-2.60951 17.68666,-7.10365 26.81993,-13.77238 15.51206,-11.45286 30.44422,-27.39982 29.5744,-49.00077 -0.43494,-9.85812 -3.04443,-19.57128 -6.66874,-28.99451 19.57128,-8.11846 44.7965,-12.61261 76.98041,-8.84332 69.00694,8.11846 82.63436,51.17533 80.02485,69.2969 -2.60951,18.12157 -17.10677,27.9797 -21.89085,31.02413 -4.7841,3.04443 -6.37881,4.05923 -5.94388,6.23382 0.5799,3.1894 2.89945,3.04442 6.95868,2.46454 5.65394,-1.01483 36.24314,-14.64224 37.54789,-47.98592 2.17459,-42.62196 -38.41773,-89.15816 -110.17915,-88.72323 z M 151.09939,785.29521 c -22.90568,24.93527 -54.799638,34.35848 -68.572029,26.385 -14.7872,-8.55338 -8.988297,-45.37641 19.136369,-71.76141 17.10677,-16.09196 39.1426,-31.02414 53.78482,-40.15741 3.33437,-2.0296 8.26343,-4.92905 14.20731,-8.55336 1.0148,-0.5799 1.59469,-0.86983 1.59469,-0.86983 v 0 c 1.15979,-0.72487 2.31957,-1.44973 3.47934,-2.1746 10.29306,37.69287 0.43492,70.89158 -23.6305,97.13161 z M 317.8178,671.92664 c -7.97349,19.42636 -24.64534,69.15194 -34.7934,66.39746 -8.69836,-2.31957 -14.06235,-40.01242 -1.73967,-77.27041 6.2338,-18.70145 19.42631,-41.02722 27.10985,-49.72558 12.46764,-13.91735 26.24004,-18.55647 29.57441,-12.90253 4.20419,7.39358 -15.22212,61.32336 -20.15119,73.50106 z m 137.57895,65.81757 c -3.33437,1.73966 -6.52378,2.89946 -7.97349,2.02962 -1.01482,-0.5799 1.44971,-2.89945 1.44971,-2.89945 0,0 17.25175,-18.55649 24.06546,-26.96489 3.91425,-4.92909 8.55338,-10.72798 13.48245,-17.25174 0,0.57989 0,1.30475 0,1.88464 0,22.18081 -21.45595,37.11298 -31.02413,43.20182 z M 561.51666,713.5338 c -2.46455,-1.73969 -2.02963,-7.53858 6.2338,-25.66014 3.1894,-7.10369 10.72797,-18.99143 23.63054,-30.44427 1.44972,4.63912 2.46452,9.13327 2.31955,13.33746 -0.14497,27.97974 -20.15118,38.41777 -32.18389,42.76695 z"
     id="path2"
     inkscape:connector-curvature="0"
     style="fill:#cd6799;stroke-width:1.44972539" /><g
     id="g4"
     transform="translate(0,711.91968)" /><g
     id="g6"
     transform="translate(0,711.91968)" /><g
     id="g8"
     transform="translate(0,711.91968)" /><g
     id="g10"
     transform="translate(0,711.91968)" /><g
     id="g12"
     transform="translate(0,711.91968)" /><g
     id="g14"
     transform="translate(0,711.91968)" /></svg>